<!DOCTYPE svg PUBLIC "-//W3C//DTD SVG 1.1//EN" "http://www.w3.org/Graphics/SVG/1.1/DTD/svg11.dtd">
<!-- Uploaded to: SVG Repo, www.svgrepo.com, Transformed by: SVG Repo Mixer Tools -->
<svg height="800px" width="800px" version="1.1" id="Layer_1" xmlns="http://www.w3.org/2000/svg" xmlns:xlink="http://www.w3.org/1999/xlink" viewBox="0 0 512 512" xml:space="preserve" fill="#000000">
<g id="SVGRepo_bgCarrier" stroke-width="0"/>
<g id="SVGRepo_tracerCarrier" stroke-linecap="round" stroke-linejoin="round"/>
<g id="SVGRepo_iconCarrier"> <g> <path style="fill:#c71ddd;" d="M379.586,256c0-68.255-55.331-123.586-123.586-123.586S132.414,187.745,132.414,256 S187.745,379.586,256,379.586S379.586,324.255,379.586,256"/> <g> <path style="fill:#dd51f0;" d="M378.182,238.345c0.83,5.782,1.404,11.644,1.404,17.655c0,10.805-1.527,21.239-4.14,31.232 c26.836-7.565,49.823-24.717,65.933-48.887H378.182z"/> <path style="fill:#dd51f0;" d="M132.414,256c0-6.012,0.574-11.873,1.404-17.655H70.621c16.11,24.17,39.097,41.322,65.933,48.887 C133.941,277.239,132.414,266.805,132.414,256"/> </g> <g> <path style="fill:#fcf0ff;" d="M154.659,185.379H35.31l35.31,52.966h63.197C136.616,218.854,143.872,200.828,154.659,185.379"/> <path style="fill:#fcf0ff;" d="M357.341,185.379c10.787,15.448,18.044,33.474,20.842,52.966h63.197l35.31-52.966H357.341z"/> </g> <g> <path style="fill:#dd51f0;" d="M35.31,185.379h119.349c22.334-31.991,59.366-52.966,101.341-52.966H0L35.31,185.379z"/> <path style="fill:#dd51f0;" d="M256,132.414c41.975,0,79.007,20.974,101.341,52.966H476.69L512,132.414H256z"/> </g> <path style="fill:#fcf0ff;" d="M255.862,176.552l26.624,35.31h44.138l-23.773,46.08l23.773,42.196h-44.138l-26.483,35.31 l-26.483-35.31h-44.138l23.49-42.196l-23.49-46.08h44.138L255.862,176.552z"/> </g> </g>
</svg>