<?xml version="1.0" encoding="iso-8859-1"?>
<!-- Uploaded to: SVG Repo, www.svgrepo.com, Generator: SVG Repo Mixer Tools -->
<svg height="800px" width="800px" version="1.1" id="Layer_1" xmlns="http://www.w3.org/2000/svg" xmlns:xlink="http://www.w3.org/1999/xlink" 
	 viewBox="0 0 451.277 451.277" xml:space="preserve">
<circle style="fill:#45B39C;" cx="225.638" cy="225.638" r="225.638"/>
<path style="opacity:0.1;enable-background:new    ;" d="M134.2,134.203c-50.462,50.462-50.462,132.371,0,182.834l130.772,130.772
	c93.082-16.371,166.462-89.75,182.836-182.831L317.034,134.203C266.571,83.741,184.695,83.708,134.2,134.203z"/>
<circle style="fill:#DC8744;" cx="225.638" cy="225.638" r="129.28"/>
<path style="fill:#F6C358;" d="M225.637,331.416c-58.326,0-105.777-47.452-105.777-105.777c0-58.324,47.451-105.777,105.777-105.777
	c58.327,0,105.777,47.453,105.777,105.777C331.414,283.964,283.964,331.416,225.637,331.416z"/>
<path style="fill:#DC8744;" d="M222.19,290.622v-11.444c-14.321-1.467-27.175-7.157-38.568-17.095l11.444-13.638
	c8.784,7.629,17.823,12.184,27.124,13.638v-30.415c-11.814-2.82-20.458-6.52-25.944-11.125c-5.486-4.593-8.235-11.419-8.235-20.464
	c0-9.033,3.164-16.432,9.486-22.173c6.321-5.754,14.557-8.892,24.693-9.416v-7.833h10.034v7.999
	c11.495,0.829,22.365,4.759,32.609,11.75l-10.194,14.429c-6.896-4.912-14.372-7.948-22.416-9.096v29.471h0.472
	c12.018,2.82,20.847,6.647,26.492,11.444c5.645,4.809,8.465,11.788,8.465,20.935c0,9.148-3.241,16.585-9.722,22.339
	c-6.481,5.741-15.048,8.88-25.708,9.403v11.291H222.19z M211.135,189.426c-2.66,2.347-3.993,5.282-3.993,8.778
	c0,3.509,1.039,6.264,3.132,8.305c2.092,2.041,6.06,4.006,11.916,5.882v-27.124C217.488,185.688,213.801,187.079,211.135,189.426z
	 M244.14,258.166c2.921-2.399,4.389-5.435,4.389-9.097c0-3.649-1.155-6.557-3.451-8.701c-2.296-2.131-6.583-4.146-12.854-6.035
	v28.221C237.237,262.031,241.212,260.577,244.14,258.166z"/>
</svg>