<?xml version="1.0" encoding="iso-8859-1"?>
<!-- Uploaded to: SVG Repo, www.svgrepo.com, Generator: SVG Repo Mixer Tools -->
<svg version="1.1" id="Layer_1" xmlns="http://www.w3.org/2000/svg" xmlns:xlink="http://www.w3.org/1999/xlink" 
	 viewBox="0 0 509 509" xml:space="preserve">
<circle style="fill:#F0582F;" cx="254.5" cy="254.5" r="254.5"/>
<rect x="231.33" y="86.176" transform="matrix(-0.7071 -0.7071 0.7071 -0.7071 240.0087 665.9625)" style="fill:#333842;" width="53.199" height="394.196"/>
<rect x="98.778" y="406.178" transform="matrix(-0.7071 -0.7071 0.7071 -0.7071 -80.0371 798.6026)" style="fill:#DEDEDF;" width="53.199" height="19.4"/>
<rect x="323.133" y="124.174" transform="matrix(-0.7071 -0.7071 0.7071 -0.7071 461.6395 574.165)" style="fill:#FBD303;" width="53.2" height="134.599"/>
<g>
	<polygon style="fill:#F5EA0A;" points="177.9,207.7 187.3,236.6 217.7,236.6 193.1,254.4 202.5,283.3 177.9,265.5 153.3,283.3 
		162.7,254.4 138.2,236.6 168.5,236.6 	"/>
	<polygon style="fill:#F5EA0A;" points="182.6,87.1 188.4,105 207.2,105 192,116 197.8,133.9 182.6,122.8 167.4,133.9 173.2,116 
		158,105 176.8,105 	"/>
	<polygon style="fill:#F5EA0A;" points="431.3,216.6 434.9,227.7 446.5,227.7 437.1,234.5 440.7,245.5 431.3,238.7 421.9,245.5 
		425.5,234.5 416.1,227.7 427.7,227.7 	"/>
</g>
<g>
	<polygon style="fill:#F1F3F7;" points="384.2,324.6 392.3,349.7 418.7,349.7 397.4,365.2 405.5,390.2 384.2,374.7 362.9,390.2 
		371,365.2 349.7,349.7 376.1,349.7 	"/>
	<polygon style="fill:#F1F3F7;" points="293,119.4 296.6,130.4 308.1,130.4 298.8,137.3 302.4,148.3 293,141.5 283.6,148.3 
		287.2,137.3 277.8,130.4 289.4,130.4 	"/>
</g>
</svg>